# xmcd
#
# Track frame offsets: 
#        183
#        16755
#        33923
#        46863
#        66858
#        79878
#        95043
#        108675
#        123610
#        140995
#
# Disc length: 2104 seconds
#
# Revision: 6
# Processed by: cddbd v1.5.2PL0 Copyright (c) Steve Scherf et al.
# Submitted via: ExactAudioCopyFreeDBPlugin 1.0
#
DISCID=8c08360a
DTITLE=Kathy Mattea - A Collection Of Hits
DYEAR=1990
DGENRE=Country
TTITLE0=Love At The Five and Dime
TTITLE1=Walk The Way The Wind Blows
TTITLE2=Train Of Memories
TTITLE3=Goin' Gone
TTITLE4=The Battle Hymn Of Love (With Tim O'Brien)
TTITLE5=Eighteen Wheels And A Dozen Roses
TTITLE6=Untold Stories
TTITLE7=Life As We Knew It
TTITLE8=A Few Good Things Remain
TTITLE9=Where've You Been
EXTD=
EXTT0=
EXTT1=
EXTT2=
EXTT3=
EXTT4=
EXTT5=
EXTT6=
EXTT7=
EXTT8=
EXTT9=
PLAYORDER=
